<svg width="17" height="18" viewBox="0 0 17 18" fill="none" xmlns="http://www.w3.org/2000/svg">
<path d="M7.90476 14.9876L8.25 15.3171L8.59524 14.9876L11.9507 11.7847C14.2405 11.9792 16 13.7953 16 15.9759V16.3134C16 16.9472 15.4542 17.5009 14.7321 17.5009H1.76786C1.04582 17.5009 0.5 16.9472 0.5 16.3134V15.9759C0.5 13.7953 2.25951 11.9792 4.54934 11.7847L7.90476 14.9876ZM1.73259 2.57571L1.23661 2.46165V2.45859L0.845769 2.37115L0.612362 2.31893C0.541579 2.30221 0.515707 2.27594 0.508951 2.26788C0.50117 2.25861 0.500921 2.25286 0.500921 2.25088C0.500921 2.2489 0.50117 2.24315 0.508951 2.23388C0.515744 2.22578 0.541861 2.19927 0.61352 2.18256C0.61365 2.18253 0.613781 2.1825 0.613912 2.18247L7.63173 0.569268C7.63189 0.569233 7.63204 0.569198 7.63219 0.569163C8.03759 0.47696 8.4659 0.476946 8.8713 0.569119C8.87152 0.569169 8.87173 0.569218 8.87195 0.569268L15.883 2.18612C15.883 2.18613 15.883 2.18613 15.8831 2.18614C15.9569 2.2032 15.984 2.23037 15.9908 2.23851C15.9983 2.24735 15.9982 2.25209 15.9982 2.2526L15.9982 2.25264C15.9982 2.25289 15.9986 2.25765 15.9908 2.26677C15.984 2.2749 15.957 2.30203 15.8833 2.31909C15.8832 2.31911 15.8831 2.31913 15.883 2.31916L12.3366 3.1347L11.7019 3.28065L12.0069 3.85609C12.2943 4.39851 12.4643 4.99374 12.4643 5.62589C12.4643 7.81363 10.5999 9.62589 8.25 9.62589C5.90006 9.62589 4.03571 7.81363 4.03571 5.62589C4.03571 4.99527 4.20859 4.39934 4.49426 3.85398L4.79495 3.27993L4.16339 3.13469L1.73259 2.57571ZM0.985102 5.34609L1.17857 5.23529L1.37204 5.34609C1.50751 5.42368 1.5625 5.531 1.5625 5.62589C1.5625 5.71446 1.51351 5.81563 1.38672 5.8957L1.17857 6.02714L0.970423 5.8957C0.843633 5.81563 0.794643 5.71446 0.794643 5.62589C0.794643 5.531 0.849636 5.42368 0.985102 5.34609ZM0.647873 8.50089L1.17857 6.47783L1.70927 8.50089H0.647873Z" stroke="#666666"/>
</svg>
