<svg width="24" height="21" viewBox="0 0 24 21" fill="none" xmlns="http://www.w3.org/2000/svg">
<path d="M1.5 0C0.671574 0 0 0.671573 0 1.5C0 2.32843 0.671574 3 1.5 3H22.5C23.3284 3 24 2.32843 24 1.5C24 0.671573 23.3284 0 22.5 0H1.5ZM24 19.5C24 20.3284 23.3284 21 22.5 21H17.5C16.6716 21 16 20.3284 16 19.5C16 18.6716 16.6716 18 17.5 18H22.5C23.3284 18 24 18.6716 24 19.5ZM24 10.5C24 11.3284 23.3284 12 22.5 12H9.5C8.67157 12 8 11.3284 8 10.5C8 9.67157 8.67157 9 9.5 9H22.5C23.3284 9 24 9.67157 24 10.5Z" fill="#666666"/>
</svg>
