<svg width="24" height="24" viewBox="0 0 24 24" fill="none" xmlns="http://www.w3.org/2000/svg">
<path fill-rule="evenodd" clip-rule="evenodd" d="M12 0C5.375 0 0 5.375 0 12C0 18.625 5.375 24 12 24C18.612 24 24 18.625 24 12C24 5.375 18.612 0 12 0ZM19.926 5.531C21.358 7.275 22.217 9.501 22.243 11.909C21.905 11.844 18.521 11.154 15.11 11.583C15.032 11.414 14.967 11.232 14.889 11.05C14.681 10.555 14.446 10.048 14.212 9.566C17.987 8.03 19.705 5.818 19.926 5.531ZM13.418 8.043C11.739 4.959 9.878 2.433 9.592 2.043C10.36 1.861 11.167 1.77 12 1.77C14.603 1.77 16.985 2.746 18.794 4.347C18.612 4.607 17.063 6.677 13.418 8.043ZM7.64 2.733C7.913 3.097 9.735 5.635 11.44 8.655C6.65 9.93 2.42 9.905 1.965 9.905C2.629 6.729 4.777 4.087 7.64 2.733ZM1.744 11.7C2.186 11.713 7.158 11.778 12.273 10.243C12.573 10.815 12.846 11.401 13.106 11.987C12.976 12.026 12.833 12.065 12.702 12.104C7.418 13.809 4.607 18.469 4.372 18.859C2.745 17.05 1.743 14.642 1.743 12.013L1.744 11.7ZM13.757 13.692C13.783 13.679 13.796 13.679 13.822 13.666C15.267 17.401 15.853 20.538 16.009 21.436C14.772 21.97 13.419 22.256 12 22.256C9.631 22.256 7.445 21.449 5.714 20.096C5.896 19.718 7.978 15.709 13.757 13.692ZM17.714 20.499C17.61 19.874 17.063 16.881 15.723 13.197C18.938 12.69 21.749 13.523 22.1 13.64C21.657 16.49 20.018 18.95 17.714 20.499Z" fill="white"/>
</svg>
