<svg width="15" height="15" viewBox="0 0 15 15" fill="none" xmlns="http://www.w3.org/2000/svg">
<path d="M10.25 11.25V9.5H14.5V14.25C14.5 14.3163 14.4737 14.3799 14.4268 14.4268C14.3799 14.4737 14.3163 14.5 14.25 14.5H0.75C0.683694 14.5 0.620107 14.4737 0.573224 14.4268C0.526339 14.3799 0.5 14.3163 0.5 14.25V9.5H4.75V11.25V11.75H5.25H9.75H10.25V11.25ZM3.75 3.5H4.25V3V0.75C4.25 0.683696 4.27634 0.620108 4.32322 0.573223C4.37011 0.526339 4.4337 0.5 4.5 0.5H10.5C10.5663 0.5 10.6299 0.526339 10.6768 0.573224C10.7237 0.620107 10.75 0.683694 10.75 0.75V3V3.5H11.25H14.25C14.3163 3.5 14.3799 3.52634 14.4268 3.57322C14.4737 3.62011 14.5 3.68369 14.5 3.75V7H10.25V6V5.5H9.75H5.25H4.75V6V7H0.5V3.75C0.5 3.6837 0.526339 3.62011 0.573223 3.57322C0.620108 3.52634 0.683696 3.5 0.75 3.5H3.75ZM5.25 1H4.75V1.5V3V3.5H5.25H9.75H10.25V3V1.5V1H9.75H5.25ZM7.25 8H7.75V9.25H7.25V8Z" stroke="#666666"/>
</svg>
