<svg width="24" height="24" viewBox="0 0 24 24" fill="none" xmlns="http://www.w3.org/2000/svg">
<g clip-path="url(#clip0_1422_13020)">
<path d="M24 9.5V19.5C24 21.98 21.98 24 19.5 24H4.5C2.02 24 0 21.98 0 19.5V7.5C0 5.02 2.02 3 4.5 3H13.5C13.78 3 14 3.22 14 3.5C14 3.78 13.78 4 13.5 4H4.5C2.89 4 1.53 5.09 1.12 6.57L9.52 14.97C10.88 16.34 13.1 16.33 14.47 14.97L19.14 10.15C19.33 9.95 19.65 9.95 19.85 10.14C20.05 10.33 20.05 10.65 19.86 10.85L15.19 15.68C14.31 16.56 13.15 17 12 17C10.85 17 9.7 16.56 8.82 15.68L1 7.86V19.5C1 21.43 2.57 23 4.5 23H19.5C21.43 23 23 21.43 23 19.5V9.5C23 9.22 23.22 9 23.5 9C23.78 9 24 9.22 24 9.5ZM16 4C16 1.79 17.79 0 20 0C22.21 0 24 1.79 24 4C24 6.21 22.21 8 20 8C17.79 8 16 6.21 16 4ZM17 4C17 5.65 18.35 7 20 7C21.65 7 23 5.65 23 4C23 2.35 21.65 1 20 1C18.35 1 17 2.35 17 4Z" fill="#56B887"/>
</g>
<defs>
<clipPath id="clip0_1422_13020">
<rect width="24" height="24" fill="white"/>
</clipPath>
</defs>
</svg>
