<svg width="18" height="18" viewBox="0 0 18 18" fill="none" xmlns="http://www.w3.org/2000/svg">
<path d="M9 1.6215C11.403 1.6215 11.688 1.6305 12.6368 1.674C13.6178 1.719 14.628 1.9425 15.3428 2.65725C16.0643 3.37875 16.281 4.37925 16.326 5.36325C16.3695 6.312 16.3785 6.597 16.3785 9C16.3785 11.403 16.3695 11.688 16.326 12.6368C16.2817 13.6125 16.053 14.6325 15.3428 15.3428C14.6213 16.0643 13.6215 16.281 12.6368 16.326C11.688 16.3695 11.403 16.3785 9 16.3785C6.597 16.3785 6.312 16.3695 5.36325 16.326C4.395 16.2817 3.3615 16.0478 2.65725 15.3428C1.9395 14.625 1.719 13.6148 1.674 12.6368C1.6305 11.688 1.6215 11.403 1.6215 9C1.6215 6.597 1.6305 6.312 1.674 5.36325C1.71825 4.39125 1.94925 3.36525 2.65725 2.65725C3.37725 1.93725 4.3815 1.719 5.36325 1.674C6.312 1.6305 6.597 1.6215 9 1.6215ZM9 0C6.55575 0 6.249 0.0105 5.289 0.054C3.89775 0.11775 2.51625 0.50475 1.5105 1.5105C0.501 2.52 0.11775 3.8985 0.054 5.289C0.0105 6.249 0 6.55575 0 9C0 11.4443 0.0105 11.751 0.054 12.711C0.11775 14.1007 0.50625 15.486 1.5105 16.4895C2.51925 17.4982 3.9 17.8822 5.289 17.946C6.249 17.9895 6.55575 18 9 18C11.4443 18 11.751 17.9895 12.711 17.946C14.1015 17.8822 15.4845 17.4945 16.4895 16.4895C17.4998 15.4792 17.8822 14.1015 17.946 12.711C17.9895 11.751 18 11.4443 18 9C18 6.55575 17.9895 6.249 17.946 5.289C17.8822 3.89775 17.4945 2.5155 16.4895 1.5105C15.4823 0.50325 14.0978 0.117 12.711 0.054C11.751 0.0105 11.4443 0 9 0Z" fill="#666666"/>
<path d="M8.99999 4.3785C6.44775 4.3785 4.3785 6.44775 4.3785 8.99999C4.3785 11.5522 6.44775 13.6215 8.99999 13.6215C11.5522 13.6215 13.6215 11.5522 13.6215 8.99999C13.6215 6.44775 11.5522 4.3785 8.99999 4.3785ZM8.99999 12C7.34324 12 6 10.6567 6 8.99999C6 7.34324 7.34324 6 8.99999 6C10.6567 6 12 7.34324 12 8.99999C12 10.6567 10.6567 12 8.99999 12Z" fill="#666666"/>
<path d="M13.8045 5.27551C14.401 5.27551 14.8845 4.79197 14.8845 4.1955C14.8845 3.59903 14.401 3.1155 13.8045 3.1155C13.208 3.1155 12.7245 3.59903 12.7245 4.1955C12.7245 4.79197 13.208 5.27551 13.8045 5.27551Z" fill="#666666"/>
</svg>
