<svg width="24" height="24" viewBox="0 0 24 24" fill="none" xmlns="http://www.w3.org/2000/svg">
<g clip-path="url(#clip0_1422_13024)">
<path d="M24 4V5H20V9H19V5H15V4H19V0H20V4H24ZM17.527 13.837L23.207 19.516L20.327 22.395C19.295 23.43 17.895 23.999 16.387 23.999C9.188 24 0 14.812 0 7.614C0 6.105 0.57 4.705 1.604 3.673L4.483 0.793L10.163 6.472L6.791 9.845C8.281 13.356 10.755 15.833 14.15 17.214L17.527 13.838V13.837ZM21.793 19.516L17.527 15.251L14.396 18.381C10.5 16.999 7.346 14.126 5.614 9.607L8.749 6.472L4.483 2.208L2.311 4.38C1.465 5.224 0.999 6.373 0.999 7.614C0.999 14.229 9.77 23 16.386 23C17.627 23 18.775 22.534 19.619 21.689L21.793 19.516Z" fill="#56B887"/>
</g>
<defs>
<clipPath id="clip0_1422_13024">
<rect width="24" height="24" fill="white"/>
</clipPath>
</defs>
</svg>
