<svg width="18" height="16" viewBox="0 0 18 16" fill="none" xmlns="http://www.w3.org/2000/svg">
<path d="M9 9.99999H12V11H9L9.00004 14H8V11H5V9.99999H8V7.00001H9.00004L9 9.99999ZM18 3.25001V16H3.63737e-05V1.75001C3.63737e-05 1.15327 0 0.5 0 5.32716e-06C0.499973 0 1.50004 7.45058e-09 2.00004 1.14739e-05L6.00004 0L9.17704 1.00001H16C16.5968 1.00001 17.5 0.999999 18 0.999999C18 1.5 18 2.65327 18 3.25001ZM1.00004 1.50001V5H17L17 2.75001C17 2.5511 17 2.00001 17 2.00001C17 2.00001 16.1989 2.00001 16 2.00001H9.00004L6.00004 1.00001H2.00004C1.80112 1.00001 1.50004 1.00001 1.50004 1.00001C1.50004 1.00001 1.00004 1.00001 1.00004 1.50001ZM17 15L17 5.75001H1.00004L1 15H17Z" fill="#666666"/>
</svg>
