<svg width="17" height="18" viewBox="0 0 17 18" fill="none" xmlns="http://www.w3.org/2000/svg">
<mask id="path-1-inside-1_1452_4499" fill="white">
<path d="M16.5 4.28699V4.5H11V0H11.2603C11.5338 0 11.7962 0.0889101 11.9896 0.247113L16.198 3.69035C16.3913 3.8486 16.5 4.06321 16.5 4.28699ZM10.6562 5.625C10.0891 5.625 9.625 5.24531 9.625 4.78125V0H1.03125C0.461699 0 0 0.377754 0 0.84375V17.1562C0 17.6222 0.461699 18 1.03125 18H15.4688C16.0383 18 16.5 17.6222 16.5 17.1562V5.625H10.6562ZM5.29401 14.0803C5.27317 14.0984 5.24815 14.1131 5.22039 14.1234C5.19263 14.1337 5.16266 14.1394 5.13221 14.1402C5.10175 14.141 5.0714 14.1368 5.04289 14.1281C5.01437 14.1193 4.98826 14.106 4.96603 14.0889L2.17882 11.951C2.15567 11.9332 2.13722 11.9118 2.1246 11.888C2.11199 11.8641 2.10548 11.8384 2.10548 11.8125C2.10548 11.7865 2.11199 11.7608 2.1246 11.737C2.13722 11.7132 2.15567 11.6917 2.17882 11.674L4.96603 9.53606C4.98826 9.51901 5.01437 9.50571 5.04289 9.49691C5.0714 9.48812 5.10175 9.484 5.13221 9.48481C5.16266 9.48561 5.19263 9.49131 5.22039 9.50159C5.24815 9.51187 5.27317 9.52652 5.29401 9.54471L6.13529 10.2789C6.15655 10.2975 6.17304 10.3194 6.18377 10.3432C6.19451 10.3671 6.19927 10.3925 6.19778 10.4179C6.19629 10.4433 6.18858 10.4682 6.1751 10.4911C6.16161 10.514 6.14264 10.5345 6.11931 10.5513L4.36777 11.8125L6.11931 13.0737C6.14264 13.0905 6.16161 13.111 6.1751 13.1339C6.18858 13.1568 6.19629 13.1817 6.19778 13.2071C6.19927 13.2325 6.19451 13.2579 6.18377 13.2818C6.17304 13.3056 6.15655 13.3275 6.13529 13.3461L5.29401 14.0803ZM7.49809 15.8549L6.31847 15.5747C6.25937 15.5607 6.20951 15.528 6.17985 15.4839C6.15019 15.4398 6.14316 15.3878 6.1603 15.3394L8.8003 7.89947C8.81747 7.85112 8.85741 7.81032 8.91133 7.78606C8.96525 7.76179 9.02874 7.75603 9.08785 7.77006L10.2674 8.05025C10.2967 8.05721 10.324 8.06881 10.3478 8.08439C10.3716 8.09998 10.3914 8.11924 10.406 8.14109C10.4207 8.16294 10.43 8.18694 10.4334 8.21172C10.4367 8.2365 10.434 8.26158 10.4256 8.28552L7.78555 15.7255C7.77707 15.7494 7.76291 15.7718 7.74387 15.7913C7.72483 15.8107 7.70129 15.8269 7.6746 15.8389C7.6479 15.851 7.61857 15.8586 7.58829 15.8613C7.558 15.864 7.52735 15.8619 7.49809 15.8549ZM14.4071 11.951L11.6199 14.0889C11.5977 14.106 11.5716 14.1193 11.5431 14.1281C11.5145 14.1368 11.4842 14.141 11.4537 14.1402C11.4233 14.1394 11.3933 14.1337 11.3655 14.1234C11.3378 14.1131 11.3128 14.0984 11.2919 14.0803L10.4506 13.346C10.4293 13.3275 10.4129 13.3056 10.4021 13.2817C10.3914 13.2579 10.3866 13.2325 10.3881 13.2071C10.3896 13.1817 10.3973 13.1568 10.4108 13.1338C10.4243 13.1109 10.4433 13.0905 10.4666 13.0737L12.2182 11.8125L10.4666 10.5513C10.4433 10.5345 10.4243 10.514 10.4108 10.4911C10.3974 10.4682 10.3896 10.4433 10.3882 10.4179C10.3867 10.3925 10.3914 10.3671 10.4022 10.3432C10.4129 10.3194 10.4294 10.2975 10.4506 10.2789L11.292 9.54471C11.3128 9.52652 11.3378 9.51187 11.3656 9.50159C11.3934 9.49131 11.4233 9.48561 11.4538 9.48481C11.4842 9.484 11.5146 9.48812 11.5431 9.49691C11.5716 9.50571 11.5977 9.51901 11.62 9.53606L14.4072 11.674C14.4303 11.6917 14.4488 11.7132 14.4614 11.737C14.474 11.7608 14.4805 11.7865 14.4805 11.8125C14.4805 11.8385 14.474 11.8641 14.4613 11.888C14.4487 11.9118 14.4303 11.9332 14.4071 11.951Z"/>
</mask>
<path d="M16.5 4.28699H17.5V4.28693L16.5 4.28699ZM16.5 4.5V5.5H17.5V4.5H16.5ZM11 4.5H10V5.5H11V4.5ZM11 0V-1H10V0H11ZM11.9896 0.247113L12.6228 -0.526844L12.6227 -0.526913L11.9896 0.247113ZM16.198 3.69035L16.8313 2.91646L16.8312 2.91639L16.198 3.69035ZM9.625 0H10.625V-1H9.625V0ZM16.5 5.625H17.5V4.625H16.5V5.625ZM4.96603 14.0889L5.57469 13.2955L5.57465 13.2954L4.96603 14.0889ZM2.17882 11.951L2.78744 11.1575H2.78744L2.17882 11.951ZM2.17882 11.674L2.78744 12.4674L2.78744 12.4674L2.17882 11.674ZM4.96603 9.53606L5.57465 10.3295L5.57469 10.3295L4.96603 9.53606ZM5.29401 9.54471L5.95156 8.7913L5.95154 8.79128L5.29401 9.54471ZM6.13529 10.2789L5.47775 11.0324L5.47776 11.0324L6.13529 10.2789ZM6.11931 10.5513L5.53498 9.73979L5.53498 9.73979L6.11931 10.5513ZM4.36777 11.8125L3.78344 11.001L2.65642 11.8125L3.78344 12.624L4.36777 11.8125ZM6.11931 13.0737L5.53498 13.8852L5.53498 13.8852L6.11931 13.0737ZM6.13529 13.3461L6.79282 14.0995L6.79283 14.0995L6.13529 13.3461ZM6.31847 15.5747L6.08719 16.5476L6.08737 16.5476L6.31847 15.5747ZM6.1603 15.3394L5.21787 15.005L5.21775 15.0054L6.1603 15.3394ZM8.8003 7.89947L7.85796 7.56482L7.85787 7.56506L8.8003 7.89947ZM9.08785 7.77006L9.31896 6.79713L9.3187 6.79707L9.08785 7.77006ZM10.2674 8.05025L10.4986 7.07733L10.4985 7.07733L10.2674 8.05025ZM10.4256 8.28552L9.48317 7.95098L9.48312 7.95111L10.4256 8.28552ZM7.78555 15.7255L6.84312 15.3911L6.84288 15.3918L7.78555 15.7255ZM11.6199 14.0889L11.0113 13.2954L11.0112 13.2955L11.6199 14.0889ZM11.2919 14.0803L11.9495 13.3268L11.9495 13.3268L11.2919 14.0803ZM10.4506 13.346L9.79306 14.0994L9.79307 14.0994L10.4506 13.346ZM10.4666 13.0737L9.88227 12.2621L9.88226 12.2621L10.4666 13.0737ZM12.2182 11.8125L12.8025 12.624L13.9295 11.8125L12.8025 11.001L12.2182 11.8125ZM10.4666 10.5513L11.051 9.73979L11.051 9.73979L10.4666 10.5513ZM10.4506 10.2789L9.79312 9.52552L9.79311 9.52553L10.4506 10.2789ZM11.292 9.54471L11.9495 10.2981L11.9495 10.2981L11.292 9.54471ZM11.62 9.53606L11.0113 10.3295L11.0113 10.3295L11.62 9.53606ZM14.4072 11.674L15.0159 10.8806L15.0158 10.8805L14.4072 11.674ZM15.5 4.28699V4.5H17.5V4.28699H15.5ZM16.5 3.5H11V5.5H16.5V3.5ZM12 4.5V0H10V4.5H12ZM11 1H11.2603V-1H11V1ZM11.2603 1C11.2896 1 11.3151 1.00489 11.334 1.01132C11.3533 1.01784 11.3596 1.02371 11.3564 1.02114L12.6227 -0.526913C12.2335 -0.84533 11.7414 -1 11.2603 -1V1ZM11.3563 1.02107L15.5647 4.46431L16.8312 2.91639L12.6228 -0.526844L11.3563 1.02107ZM15.5647 4.46424C15.5566 4.45763 15.5 4.40059 15.5 4.28705L17.5 4.28693C17.5 3.72584 17.2261 3.23958 16.8313 2.91646L15.5647 4.46424ZM10.6562 4.625C10.5916 4.625 10.5604 4.60256 10.5612 4.60319C10.5628 4.60455 10.5779 4.61734 10.5939 4.64804C10.6108 4.68064 10.625 4.72711 10.625 4.78125H8.625C8.625 5.97587 9.73376 6.625 10.6562 6.625V4.625ZM10.625 4.78125V0H8.625V4.78125H10.625ZM9.625 -1H1.03125V1H9.625V-1ZM1.03125 -1C0.106398 -1 -1 -0.352799 -1 0.84375H1C1 0.895865 0.986402 0.94158 0.969363 0.97454C0.953299 1.00562 0.937748 1.01907 0.935281 1.02108C0.932747 1.02316 0.963388 1 1.03125 1V-1ZM-1 0.84375V17.1562H1V0.84375H-1ZM-1 17.1562C-1 18.3528 0.106398 19 1.03125 19V17C0.963388 17 0.932747 16.9768 0.935281 16.9789C0.937748 16.9809 0.953299 16.9944 0.969363 17.0255C0.986402 17.0584 1 17.1041 1 17.1562H-1ZM1.03125 19H15.4688V17H1.03125V19ZM15.4688 19C16.3936 19 17.5 18.3528 17.5 17.1562H15.5C15.5 17.1041 15.5136 17.0584 15.5306 17.0255C15.5467 16.9944 15.5623 16.9809 15.5647 16.9789C15.5673 16.9768 15.5366 17 15.4688 17V19ZM17.5 17.1562V5.625H15.5V17.1562H17.5ZM16.5 4.625H10.6562V6.625H16.5V4.625ZM4.63648 13.3268C4.71329 13.2598 4.79523 13.2144 4.87319 13.1856L5.56758 15.0612C5.70107 15.0117 5.83305 14.9371 5.95154 14.8337L4.63648 13.3268ZM4.87319 13.1856C4.95127 13.1567 5.02994 13.1425 5.10585 13.1405L5.15857 15.1398C5.29539 15.1362 5.43399 15.1106 5.56758 15.0612L4.87319 13.1856ZM5.10585 13.1405C5.18176 13.1385 5.25999 13.1485 5.33762 13.1725L4.74816 15.0836C4.88281 15.1252 5.02174 15.1434 5.15857 15.1398L5.10585 13.1405ZM5.33762 13.1725C5.41511 13.1964 5.49675 13.2357 5.57469 13.2955L4.35736 14.8823C4.47976 14.9762 4.61363 15.0421 4.74816 15.0836L5.33762 13.1725ZM5.57465 13.2954L2.78744 11.1575L1.57019 12.7444L4.35741 14.8824L5.57465 13.2954ZM2.78744 11.1575C2.86881 11.2199 2.94832 11.3066 3.00836 11.42L1.24085 12.3559C1.32611 12.5169 1.44253 12.6465 1.5702 12.7444L2.78744 11.1575ZM3.00836 11.42C3.06905 11.5346 3.10548 11.669 3.10548 11.8125H1.10548C1.10548 12.0079 1.15493 12.1936 1.24085 12.3559L3.00836 11.42ZM3.10548 11.8125C3.10548 11.956 3.06905 12.0903 3.00836 12.205L1.24085 11.2691C1.15493 11.4313 1.10548 11.617 1.10548 11.8125H3.10548ZM3.00836 12.205C2.94832 12.3183 2.86881 12.405 2.78744 12.4674L1.5702 10.8805C1.44253 10.9784 1.32611 11.108 1.24085 11.2691L3.00836 12.205ZM2.78744 12.4674L5.57465 10.3295L4.35741 8.7426L1.57019 10.8805L2.78744 12.4674ZM5.57469 10.3295C5.49674 10.3893 5.41509 10.4286 5.33762 10.4525L4.74816 8.54133C4.61366 8.58282 4.47978 8.64873 4.35736 8.74263L5.57469 10.3295ZM5.33762 10.4525C5.26001 10.4764 5.18178 10.4865 5.10585 10.4845L5.15857 8.48516C5.02172 8.48155 4.88279 8.49981 4.74816 8.54133L5.33762 10.4525ZM5.10585 10.4845C5.02994 10.4825 4.95127 10.4683 4.87319 10.4394L5.56758 8.5638C5.43399 8.51434 5.29539 8.48876 5.15857 8.48516L5.10585 10.4845ZM4.87319 10.4394C4.79523 10.4105 4.71329 10.3652 4.63648 10.2981L5.95154 8.79128C5.83305 8.68787 5.70107 8.61322 5.56758 8.5638L4.87319 10.4394ZM4.63646 10.2981L5.47775 11.0324L6.79284 9.52554L5.95156 8.7913L4.63646 10.2981ZM5.47776 11.0324C5.39907 10.9637 5.32465 10.871 5.27176 10.7534L7.09579 9.93308C7.02143 9.76773 6.91403  9.63131 6.79283 9.52553L5.47776 11.0324ZM5.27176 10.7534C5.21832 10.6346 5.19127 10.4995 5.1995 10.3593L7.19606 10.4765C7.20727 10.2855 7.17069 10.0996 7.09579 9.93308L5.27176 10.7534ZM5.1995 10.3593C5.20771 10.2194 5.25002 10.0914 5.31315 9.98411L7.03704 10.9981C7.12713 10.845 7.18487 10.6672 7.19606 10.4765L5.1995 10.3593ZM5.31315 9.98411C5.37565 9.87786 5.45493 9.79742 5.53498 9.73979L6.70364 11.3628C6.83035 11.2716 6.94758 11.1502 7.03704 10.9981L5.31315 9.98411ZM5.53498 9.73979L3.78344 11.001L4.95211 12.624L6.70364 11.3628L5.53498 9.73979ZM3.78344 12.624L5.53498 13.8852L6.70364 12.2622L4.95211 11.001L3.78344 12.624ZM5.53498 13.8852C5.45493 13.8276 5.37565 13.7471 5.31315 13.6409L7.03704 12.6269C6.94758 12.4748 6.83035 12.3534 6.70364 12.2622L5.53498 13.8852ZM5.31315 13.6409C5.25002 13.5336 5.20771 13.4056 5.1995 13.2657L7.19606 13.1485C7.18487 12.9578 7.12713 12.78 7.03704 12.6269L5.31315 13.6409ZM5.1995 13.2657C5.19127 13.1255 5.21832 12.9904 5.27176 12.8716L7.09579 13.6919C7.17069 13.5254 7.20727 13.3395 7.19606 13.1485L5.1995 13.2657ZM5.27176 12.8716C5.32465 12.754 5.39907 12.6613 5.47776 12.5926L6.79283 14.0995C6.91403  13.9937 7.02143 13.8573 7.09579 13.6919L5.27176 12.8716ZM5.47776 12.5926L4.63648 13.3268L5.95154 14.8337L6.79282 14.0995L5.47776 12.5926ZM7.72919 14.882L6.54957 14.6018L6.08737 16.5476L7.26699 16.8278L7.72919 14.882ZM6.54975 14.6018C6.69781 14.637 6.87903 14.7315 7.00974 14.9259L5.34997 16.0418C5.54 16.3245 5.82094 16.4843 6.08719 16.5476L6.54975 14.6018ZM7.00974 14.9259C7.14922 15.1334 7.19589 15.411 7.10285 15.6735L5.21775 15.0054C5.09044 15.3646 5.15117 15.7461 5.34997 16.0418L7.00974 14.9259ZM7.10273 15.6739L9.74273 8.23388L7.85787 7.56506L5.21787 15.005L7.10273 15.6739ZM9.74264 8.23412C9.65446 8.48244 9.47505 8.62896 9.32173 8.69796L8.50093 6.87415C8.23976 6.99169 7.98049 7.21979 7.85796 7.56482L9.74264 8.23412ZM9.32173 8.69796C9.16864 8.76686 9.0062 8.77845 8.85699 8.74305L9.3187 6.79707C9.05128 6.73362 8.76186 6.75672 8.50093 6.87415L9.32173 8.69796ZM8.85674 8.74299L10.0363 9.02318L10.4985 7.07733L9.31896 6.79713L8.85674 8.74299ZM10.0363 9.02318C9.95936 9.0049 9.87833 8.97235 9.79968 8.9208L10.8959 7.24798C10.7697 7.16526 10.634 7.10951 10.4986 7.07733L10.0363 9.02318ZM9.79968 8.9208C9.72091 8.86919 9.64163 8.79644 9.57609 8.69892L11.236 7.58327C11.1411 7.44205 11.0222 7.33077 10.8959 7.24798L9.79968 8.9208ZM9.57609 8.69892C9.50995 8.60051 9.46059 8.48058 9.44235 8.34556L11.4244 8.07788C11.3994 7.8933 11.3315 7.72536 11.236 7.58327L9.57609 8.69892ZM9.44235 8.34556C9.42404 8.20996 9.4393 8.07457 9.48317 7.95098L11.3679 8.62006C11.4288 8.44859 11.4494 8.26304 11.4244 8.07788L9.44235 8.34556ZM9.48312 7.95111L6.84312 15.3911L8.72798 16.0599L11.368 8.61993L9.48312 7.95111ZM6.84288 15.3918C6.8863 15.2691 6.95386 15.1688 7.02895 15.092L8.45879 16.4905C8.57196 16.3747 8.66784 16.2298 8.72822 16.0592L6.84288 15.3918ZM7.02895 15.092C7.1036 15.0157 7.18556 14.9624 7.26409 14.9271L8.0851 16.7508C8.21703 16.6914 8.34607 16.6057 8.45879 16.4905L7.02895 15.092ZM7.26409 14.9271C7.34268 14.8917 7.42209 14.8722 7.49821 14.8654L7.67836 16.8572C7.81506 16.8449 7.95312 16.8102 8.0851 16.7508L7.26409 14.9271ZM7.49821 14.8654C7.57438 14.8585 7.65231 14.8637 7.72941 14.882L7.26677 16.8278C7.40239 16.86 7.54162 16.8696 7.67836 16.8572L7.49821 14.8654ZM13.7985 11.1575L11.0113 13.2954L12.2285 14.8824L15.0157 12.7444L13.7985 11.1575ZM11.0112 13.2955C11.0892 13.2357 11.1708 13.1964 11.2483 13.1725L11.8378 15.0836C11.9723 15.0421 12.1062 14.9762 12.2286 14.8823L11.0112 13.2955ZM11.2483 13.1725C11.3259 13.1485 11.4042 13.1385 11.4801 13.1405L11.4274 15.1398C11.5642 15.1434 11.7031 15.1252 11.8378 15.0836L11.2483 13.1725ZM11.4801 13.1405C11.556 13.1425 11.6347 13.1567 11.7127 13.1856L11.0184 15.0612C11.152 15.1106 11.2906 15.1362 11.4274 15.1398L11.4801 13.1405ZM11.7127 13.1856C11.7907 13.2144 11.8727 13.2598 11.9495 13.3268L10.6344 14.8337C10.7529 14.9371 10.8849 15.0117 11.0184 15.0612L11.7127 13.1856ZM11.9495 13.3268L11.1081 12.5926L9.79307 14.0994L10.6344 14.8337L11.9495 13.3268ZM11.1081 12.5926C11.1868 12.6613 11.2612 12.754 11.3141 12.8716L9.49011 13.6919C9.56446 13.8572 9.67186 13.9937 9.79306 14.0994L11.1081 12.5926ZM11.3141 12.8716C11.3676 12.9904 11.3946 13.1255 11.3864 13.2657L9.38983 13.1485C9.37862 13.3395 9.41521 13.5253 9.49011 13.6919L11.3141 12.8716ZM11.3864 13.2657C11.3782 13.4056 11.3359 13.5335 11.2727 13.6409L9.54886 12.6268C9.45876 12.78 9.40102 12.9578 9.38983 13.1485L11.3864 13.2657ZM11.2727 13.6409C11.2102 13.7471 11.131 13.8275 11.0509 13.8852L9.88226 12.2621C9.75554 12.3534 9.63831 12.4748 9.54886 12.6268L11.2727 13.6409ZM11.0509 13.8852L12.8025 12.624L11.6339 11.001L9.88227 12.2621L11.0509 13.8852ZM12.8025 11.001L11.051 9.73979L9.8823 11.3628L11.6338 12.624L12.8025 11.001ZM11.051 9.73979C11.131 9.79742 11.2103 9.87786 11.2728 9.98411L9.5489 10.9981C9.63836 11.1502 9.75558 11.2716 9.8823 11.3628L11.051 9.73979ZM11.2728 9.98411C11.3359 10.0914 11.3782 10.2194 11.3864 10.3593L9.38987 10.4765C9.40107 10.6672 9.4588 10.845 9.5489 10.9981L11.2728 9.98411ZM11.3864 10.3593C11.3947 10.4995 11.3676 10.6346 11.3142 10.7534L9.49015 9.93308C9.41524 10.0996 9.37867 10.2855 9.38987 10.4765L11.3864 10.3593ZM11.3142 10.7534C11.2613 10.871 11.1869 10.9637 11.1082 11.0324L9.79311 9.52553C9.6719 9.63131 9.56451 9.76773 9.49015 9.93308L11.3142 10.7534ZM11.1082 11.0324L11.9495 10.2981L10.6344 8.79128L9.79312 9.52552L11.1082 11.0324ZM11.9495 10.2981C11.8727 10.3652 11.7908 10.4105 11.7128 10.4394L11.0184 8.5638C10.8849 8.61322 10.7529 8.68788 10.6344 8.79128L11.9495 10.2981ZM11.7128 10.4394C11.6347 10.4683 11.556 10.4825 11.4801 10.4845L11.4274 8.48516C11.2906 8.48876 11.152 8.51434 11.0184 8.5638L11.7128 10.4394ZM11.4801 10.4845C11.4042 10.4865 11.326 10.4764 11.2484 10.4525L11.8378 8.54133C11.7032 8.49981 11.5643 8.48155 11.4274 8.48516L11.4801 10.4845ZM11.2484 10.4525C11.1709 10.4286 11.0892 10.3893 11.0113 10.3295L12.2286 8.74263C12.1062 8.64873 11.9723 8.58282 11.8378 8.54133L11.2484 10.4525ZM11.0113 10.3295L13.7985 12.4674L15.0158 10.8805L12.2286 8.7426L11.0113 10.3295ZM13.7984 12.4674C13.7171 12.4049 13.6376 12.3182 13.5775 12.2048L15.3452 11.2692C15.2599 11.1081 15.1435 10.9785 15.0159 10.8806L13.7984 12.4674ZM13.5775 12.2048C13.5169 12.0902 13.4805 11.9558 13.4805 11.8123L15.4805 11.8126C15.4805 11.6172 15.4311 11.4315 15.3452 11.2692L13.5775 12.2048ZM13.4805 11.8123C13.4805 11.6688 13.5169 11.5345 13.5777 11.4199L15.345 12.356C15.431 12.1938 15.4804 12.0081 15.4805 11.8126L13.4805 11.8123ZM13.5777 11.4199C13.6377 11.3065 13.7172 11.2198 13.7986 11.1574L15.0156 12.7445C15.1433 12.6466 15.2597 12.5171 15.345 12.356L13.5777 11.4199Z" fill="#666666" mask="url(#path-1-inside-1_1452_4499)"/>
</svg>
