<svg width="38" height="30" viewBox="0 0 38 30" fill="none" xmlns="http://www.w3.org/2000/svg">
<path d="M11.7794 14.4255C10.6539 15.0048 9.36698 15.3333 8 15.3333L16 7.66667C16.3333 13.9444 13.6667 27.2 0.333333 30C4.38889 28.6111 12.6 23.8333 13 15.8333C13.1703 15.2544 13.0065 14.4959 11.7794 14.4255Z" fill="#56B887"/>
<path d="M16 7.66667C16 11.9009 12.4183 15.3333 8 15.3333C3.58172 15.3333 0 11.9009 0 7.66667C0 3.43248 3.58172 0 8 0C12.4183 0 16 3.43248 16 7.66667Z" fill="#56B887"/>
<path d="M32.7794 14.4255C31.6539 15.0048 30.367 15.3333 29 15.3333L37 7.66667C37.3333 13.9444 34.6667 27.2 21.3333 30C25.3889 28.6111 33.6 23.8333 34 15.8333C34.1703 15.2544 34.0065 14.4959 32.7794 14.4255Z" fill="#56B887"/>
<path d="M37 7.66667C37 11.9009 33.4183 15.3333 29 15.3333C24.5817 15.3333 21 11.9009 21 7.66667C21 3.43248 24.5817 0 29 0C33.4183 0 37 3.43248 37 7.66667Z" fill="#56B887"/>
</svg>
