<svg width="18" height="18" viewBox="0 0 18 18" fill="none" xmlns="http://www.w3.org/2000/svg">
<g clip-path="url(#clip0_1452_4302)">
<path d="M5.25 0H3C2.20435 0 1.44129 0.316071 0.87868 0.87868C0.316071 1.44129 0 2.20435 0 3L0 5.25C0 6.04565 0.316071 6.80871 0.87868 7.37132C1.44129 7.93393 2.20435 8 3 8H5.25C6.04565 8 6.80871 7.93393 7.37132 7.37132C7.93393 6.80871 8 6.29565 8 5.5V3C8 2.20435 7.93393 1.44129 7.37132 0.87868C6.80871 0.316071 6.04565 0 5.25 0ZM7 5.25C7 5.64782 6.7813 6.2187 6.5 6.5C6.2187 6.7813 5.64782 7 5.25 7H3C2.60218 7 1.7813 6.7813 1.5 6.5C1.2187 6.2187 1 5.64782 1 5.25V3C1 2.60218 1.2187 1.7813 1.5 1.5C1.7813 1.2187 2.60218 1 3 1H5.25C5.64782 1 6.2187 1.2187 6.5 1.5C6.7813 1.7813 7 2.60218 7 3V5.25Z" fill="#666666"/>
<path d="M5.25 10H3C2.20435 10 1.44129 10.3161 0.87868 10.8787C0.316071 11.4413 0 12.2044 0 13L0 15.25C0 16.0456 0.316071 16.8087 0.87868 17.3713C1.44129 17.9339 2.20435 18 3 18H5.25C6.04565 18 6.80871 17.9339 7.37132 17.3713C7.93393 16.8087 8 16.2956 8 15.5V13C8 12.2044 7.93393 11.4413 7.37132 10.8787C6.80871 10.3161 6.04565 10 5.25 10ZM7 15.25C7 15.6478 6.7813 16.2187 6.5 16.5C6.2187 16.7813 5.64782 17 5.25 17H3C2.60218 17 1.7813 16.7813 1.5 16.5C1.2187 16.2187 1 15.6478 1 15.25V13C1 12.6022 1.2187 11.7813 1.5 11.5C1.7813 11.2187 2.60218 11 3 11H5.25C5.64782 11 6.2187 11.2187 6.5 11.5C6.7813 11.7813 7 12.6022 7 13V15.25Z" fill="#666666"/>
<path d="M16.7199 14.2868L15.0002 17V1L16.7199 3.69226C16.7896 3.76189 16.8723 3.81712 16.9633 3.85478C17.0544 3.89245 17.1519 3.91182 17.2504 3.91178C17.3489 3.91175 17.4465 3.89231 17.5375 3.85458C17.6285 3.81685 17.7111 3.76156 17.7808 3.69188C17.8504 3.6222 17.9056 3.53948 17.9433 3.44846C17.981 3.35743 18.0003 3.25988 18.0003 3.16137C18.0003 3.06286 17.9808 2.96532 17.9431 2.87432C17.9054 2.78332 17.8501 2.70064 17.7804 2.63101L15.8402 0.693756C15.4183 0.272405 15.0964 0 14.5001 0C13.9039 0 13.082 0.272405 12.6602 0.693756L10.7199 2.63101C10.6502 2.70064 10.5949 2.78332 10.5572 2.87432C10.5195 2.96532 10.5 3.06286 10.5 3.16137C10.5 3.25988 10.5193 3.35743 10.557 3.44846C10.5947 3.53948 10.6499 3.6222 10.7195 3.69188C10.7892 3.76156 10.8718 3.81685 10.9628 3.85458C11.0538 3.89231 11.1514 3.91175 11.2499 3.91178C11.3484 3.91182 11.446 3.89245 11.537 3.85478C11.628 3.81712 11.7107 3.76189 11.7804 3.69226L14.0001 1V17L11.7804 14.2868C11.7107 14.2171 11.628 14.1619 11.537 14.1242C11.446 14.0866 11.3484 14.0672 11.2499 14.0672C11.1514 14.0673 11.0538 14.0867 10.9628 14.1244C10.8718 14.1622 10.7892 14.2174 10.7195 14.2871C10.6499 14.3568 10.5947 14.4395 10.557 14.5306C10.5193 14.6216 10.5 14.7191 10.5 14.8176C10.5 14.9162 10.5195 15.0137 10.5572 15.1047C10.5949 15.1957 10.6502 15.2784 10.7199 15.348L12.6602 17.2853C13.082 17.7066 13.9039 18 14.5001 18C15.0964 18 15.4183 17.7066 15.8402 17.2853L17.7804 15.348C17.8501 15.2784 17.9054 15.1957 17.9431 15.1047C17.9808 15.0137 18.0003 14.9162 18.0003 14.8176C18.0003 14.7191 17.981 14.6216 17.9433 14.5306C17.9056 14.4395 17.8504 14.3568 17.7808 14.2871C17.7111 14.2174 17.6285 14.1622 17.5375 14.1244C17.4465 14.0867 17.3489 14.0673 17.2504 14.0672C17.1519 14.0672 17.0544 14.0866 16.9633 14.1242C16.8723 14.1619 16.7896 14.2171 16.7199 14.2868Z" fill="#666666"/>
</g>
<defs>
<clipPath id="clip0_1452_4302">
<rect width="18" height="18" fill="white"/>
</clipPath>
</defs>
</svg>
