<svg width="35" height="24" viewBox="0 0 35 24" fill="none" xmlns="http://www.w3.org/2000/svg">
<path opacity="0.4" d="M10.5575 22.7317L12.2033 19.8699H6.53468L13.849 7.52844L17.5061 13.6097V14.1463L12.2033 22.7317H15.8604L19.3347 17.0081L22.809 22.7317H26.4662L21.3461 14.3252V13.4309L26.649 5.02438L24.6376 1.80487L19.3347 10.748L13.849 1.26828L1.23181 22.5528V22.7317H10.5575Z" stroke="#666666"/>
<path d="M26.7196 1.93906V5.39017L27.604 4.52739V2.80184H29.3727L30.2571 1.93906H26.7196Z" fill="#56B887"/>
<path d="M26.7196 10.2458V11.3293H27.7068L33.5478 3.06268V1.93906H32.6429L26.7196 10.2458Z" fill="#56B887"/>
<path d="M34.4527 11.3293V7.79793L33.5684 8.68077V10.4264L31.7996 10.4465L30.9152 11.3293H34.4527Z" fill="#56B887"/>
</svg>
