<svg width="50" height="32" viewBox="0 0 50 32" fill="none" xmlns="http://www.w3.org/2000/svg">
<path d="M13.9038 32L16.3574 27.7333H7.90609L18.8111 9.33333L24.2635 18.4V19.2L16.3574 32H21.8099L26.9898 23.4667L32.1696 32H37.6221L29.9886 19.4667V18.1333L37.8947 5.6L34.8959 0.8L26.9898 14.1333L18.8111 0L0 31.7333V32H13.9038Z" fill="#56B887"/>
<path d="M38 1V6.1453L39.3185 4.85897V2.28632H41.9556L43.2741 1H38Z" fill="white"/>
<path d="M38 13.3846V15H39.4718L48.1802 2.67521V1H46.831L38 13.3846Z" fill="white"/>
<path d="M49.5294 15V9.73504L48.2109 11.0513V13.6538L45.5738 13.6838L44.2553 15H49.5294Z" fill="white"/>
</svg>
