<?xml version="1.0" encoding="UTF-8"?>
<!DOCTYPE svg PUBLIC "-//W3C//DTD SVG 1.1//EN" "http://www.w3.org/Graphics/SVG/1.1/DTD/svg11.dtd">
<svg xmlns="http://www.w3.org/2000/svg" version="1.1" width="50px" height="32px" style="shape-rendering:geometricPrecision; text-rendering:geometricPrecision; image-rendering:optimizeQuality; fill-rule:evenodd; clip-rule:evenodd" xmlns:xlink="http://www.w3.org/1999/xlink">
<g><path style="opacity:0.423" fill="#0e0e0e" d="M 29.5,12.5 C 29.2792,15.0972 28.7792,15.0972 28,12.5C 27.5099,14.5454 27.6765,16.5454 28.5,18.5C 27.078,19.925 25.4113,20.925 23.5,21.5C 19.1667,21.5 14.8333,21.5 10.5,21.5C 4.50847,19.2884 3.00847,15.2884 6,9.5C 13.063,4.5163 20.2297,4.34963 27.5,9C 28.305,10.1127 28.9717,11.2794 29.5,12.5 Z M 18.5,7.5 C 21.2577,8.37699 23.9244,9.54366 26.5,11C 24.236,11.2362 22.0693,11.7362 20,12.5C 17.9592,11.5769 15.7925,11.2436 13.5,11.5C 13.5,13.5 13.5,15.5 13.5,17.5C 17.8461,17.3343 22.1794,17.501 26.5,18C 21.7683,20.4013 16.7683,21.068 11.5,20C 5.7548,17.2873 5.7548,13.954 11.5,10C 13.2694,8.98062 14.9361,8.81395 16.5,9.5C 17.5223,9.14451 18.189,8.47784 18.5,7.5 Z"/></g>
<g><path style="opacity:0.18" fill="#d1d1d1" d="M 35.5,12.5 C 34.391,12.5569 33.391,12.8902 32.5,13.5C 33.0527,11.4482 34.0527,11.1148 35.5,12.5 Z"/></g>
<g><path style="opacity:0.161" fill="#c4c4c4" d="M 43.5,14.5 C 42.1932,13.8466 40.8599,13.1799 39.5,12.5C 38.8933,12.6236 38.56,12.9569 38.5,13.5C 37.9569,13.44 37.6236,13.1067 37.5,12.5C 40.1667,11.1667 42.8333,11.1667 45.5,12.5C 44.7573,13.1818 44.0906,13.8485 43.5,14.5 Z"/></g>
<g><path style="opacity:1" fill="#1f1f1f" d="M 43.5,14.5 C 43.631,15.2389 43.4643,15.9056 43,16.5C 41.3967,16.1286 39.8967,15.7952 38.5,15.5C 38.5,14.8333 38.5,14.1667 38.5,13.5C 38.56,12.9569 38.8933,12.6236 39.5,12.5C 40.8599,13.1799 42.1932,13.8466 43.5,14.5 Z"/></g>
<g><path style="opacity:0.796" fill="#424242" d="M 29.5,12.5 C 30.4916,12.3284 31.1583,12.6618 31.5,13.5C 30.8333,13.5 30.5,13.8333 30.5,14.5C 30.1667,15.8333 29.8333,17.1667 29.5,18.5C 29.5,18.8333 29.5,19.1667 29.5,19.5C 28.8333,19.5 28.5,19.1667 28.5,18.5C 27.6765,16.5454 27.5099,14.5454 28,12.5C 28.7792,15.0972 29.2792,15.0972 29.5,12.5 Z"/></g>
<g><path style="opacity:0.951" fill="#707070" d="M 35.5,12.5 C 36.2719,13.6935 37.2719,14.6935 38.5,15.5C 39.8967,15.7952 41.3967,16.1286 43,16.5C 43.4643,15.9056 43.631,15.2389 43.5,14.5C 44.5,14.8333 45.1667,15.5 45.5,16.5C 40.6042,18.4461 35.2709,19.1128 29.5,18.5C 29.8333,17.1667 30.1667,15.8333 30.5,14.5C 31.1667,14.5 31.5,14.1667 31.5,13.5C 31.8333,13.5 32.1667,13.5 32.5,13.5C 33.391,12.8902 34.391,12.5569 35.5,12.5 Z"/></g>
<g><path style="opacity:0.076" fill="#eaeaea" d="M 45.5,16.5 C 46.404,17.209 46.7373,18.209 46.5,19.5C 40.8333,19.5 35.1667,19.5 29.5,19.5C 29.5,19.1667 29.5,18.8333 29.5,18.5C 35.2709,19.1128 40.6042,18.4461 45.5,16.5 Z"/></g>
<g><path style="opacity:0.399" fill="#4a4a4a" d="M 10.5,21.5 C 14.8333,21.5 19.1667,21.5 23.5,21.5C 21.4437,22.2161 19.277,22.8828 17,23.5C 14.723,22.8828 12.5563,22.2161 10.5,21.5 Z"/></g>
</svg>
