<?xml version="1.0" encoding="UTF-8"?>
<!DOCTYPE svg PUBLIC "-//W3C//DTD SVG 1.1//EN" "http://www.w3.org/Graphics/SVG/1.1/DTD/svg11.dtd">
<svg xmlns="http://www.w3.org/2000/svg" version="1.1" width="1000px" height="1000px" style="shape-rendering:geometricPrecision; text-rendering:geometricPrecision; image-rendering:optimizeQuality; fill-rule:evenodd; clip-rule:evenodd" xmlns:xlink="http://www.w3.org/1999/xlink">
<g><path style="opacity:0.924" fill="#000000" d="M 586.5,395.5 C 578.768,394.603 571.102,394.27 563.5,394.5C 542.002,331.499 501.002,285.999 440.5,258C 363.813,227.337 290.813,234.337 221.5,279C 154.151,328.923 121.985,396.089 125,480.5C 133.302,562.286 173.135,623.452 244.5,664C 297.158,691.123 352.158,697.123 409.5,682C 485.127,659.37 536.461,611.037 563.5,537C 565.433,536.749 567.266,536.249 569,535.5C 574.568,536.035 580.068,537.035 585.5,538.5C 558.108,618.058 504.775,671.892 425.5,700C 343.068,723.843 267.402,710.509 198.5,660C 121.411,595.193 91.2447,513.026 108,413.5C 125.803,340.353 167.303,284.853 232.5,247C 291.551,216.578 353.217,209.911 417.5,227C 479.802,245.75 527.469,282.417 560.5,337C 572.272,355.049 580.938,374.549 586.5,395.5 Z"/></g>
<g><path style="opacity:0.901" fill="#000000" d="M 332.5,252.5 C 339.508,252.334 346.508,252.5 353.5,253C 356.057,253.685 357.891,255.185 359,257.5C 359.667,261.167 359.667,264.833 359,268.5C 357.457,270.378 355.624,271.878 353.5,273C 343.818,273.668 334.152,274.501 324.5,275.5C 317.305,275.305 313.305,271.638 312.5,264.5C 313.115,260.054 315.448,256.887 319.5,255C 323.965,254.126 328.298,253.293 332.5,252.5 Z"/></g>
<g><path style="opacity:0.921" fill="#000000" d="M 278.5,264.5 C 289.318,266.47 292.485,272.47 288,282.5C 205.636,316.915 162.303,378.915 158,468.5C 154.599,475.283 149.433,477.116 142.5,474C 140.622,472.457 139.122,470.624 138,468.5C 138.903,383.371 176.069,319.538 249.5,277C 259.048,272.217 268.715,268.051 278.5,264.5 Z"/></g>
<g><path style="opacity:0.004" fill="#000000" d="M 586.5,395.5 C 587.833,396.167 587.833,396.167 586.5,395.5 Z"/></g>
<g><path style="opacity:0.965" fill="#000000" d="M 703.5,396.5 C 706.833,396.027 709,397.36 710,400.5C 725.667,439.5 741.333,478.5 757,517.5C 761.561,518.817 766.228,519.817 771,520.5C 775.406,519.297 779.406,517.297 783,514.5C 783.667,481.5 783.667,448.5 783,415.5C 778.538,414.449 774.038,413.449 769.5,412.5C 768.509,408.555 768.176,404.555 768.5,400.5C 791.843,400.167 815.176,400.5 838.5,401.5C 839.544,403.768 839.711,406.101 839,408.5C 834.418,411.876 829.585,414.876 824.5,417.5C 823.334,429.486 823.167,441.486 824,453.5C 836.167,440.667 848.333,427.833 860.5,415C 857.185,414.059 853.852,413.226 850.5,412.5C 849.509,408.555 849.176,404.555 849.5,400.5C 867.833,400.5 886.167,400.5 904.5,400.5C 904.292,402.92 904.626,405.253 905.5,407.5C 899.275,411.78 892.609,415.28 885.5,418C 874.65,429.35 863.983,440.85 853.5,452.5C 869.193,473.693 884.693,495.027 900,516.5C 904.033,518.144 908.2,519.477 912.5,520.5C 913.489,524.107 913.823,527.774 913.5,531.5C 896.497,531.667 879.497,531.5 862.5,531C 850.544,514.254 838.71,497.421 827,480.5C 826,481.5 825,482.5 824,483.5C 823.5,495.162 823.333,506.829 823.5,518.5C 827.923,518.626 832.256,519.293 836.5,520.5C 837.489,524.107 837.823,527.774 837.5,531.5C 791.833,531.5 746.167,531.5 700.5,531.5C 700.149,529.131 699.982,526.797 700,524.5C 704.748,521.209 709.581,518.042 714.5,515C 712.407,510.224 710.407,505.391 708.5,500.5C 694.85,499.501 681.183,499.167 667.5,499.5C 665.905,505.283 663.905,510.949 661.5,516.5C 666.562,518.682 671.896,520.015 677.5,520.5C 677.058,524.154 676.724,527.821 676.5,531.5C 657.83,531.667 639.164,531.5 620.5,531C 618.81,527.475 619.476,524.475 622.5,522C 626.34,519.579 630.34,517.412 634.5,515.5C 648.592,482.311 662.425,448.978 676,415.5C 675.304,411.886 674.47,408.219 673.5,404.5C 683.685,402.122 693.685,399.455 703.5,396.5 Z M 687.5,445.5 C 692.537,457.092 697.204,468.925 701.5,481C 692.5,481.667 683.5,481.667 674.5,481C 679.331,469.34 683.664,457.506 687.5,445.5 Z"/></g>
<g><path style="opacity:0.971" fill="#000000" d="M 306.5,399.5 C 326.503,399.333 346.503,399.5 366.5,400C 378.318,401.494 388.485,406.327 397,414.5C 408.247,430.847 406.414,445.68 391.5,459C 388.833,460.333 386.167,461.667 383.5,463C 403.758,469.003 412.258,482.503 409,503.5C 403.391,518.576 392.558,527.409 376.5,530C 344.869,531.455 313.203,531.955 281.5,531.5C 280.833,529.181 280.666,526.847 281,524.5C 286.165,520.916 291.498,517.583 297,514.5C 297.5,481.168 297.667,447.835 297.5,414.5C 292.798,414.05 288.132,413.383 283.5,412.5C 283.5,408.5 283.5,404.5 283.5,400.5C 291.352,400.825 299.018,400.492 306.5,399.5 Z M 351.5,418.5 C 356.258,419.414 359.758,422.081 362,426.5C 368.156,447.863 359.99,457.863 337.5,456.5C 337.5,444.833 337.5,433.167 337.5,421.5C 342.375,420.915 347.042,419.915 351.5,418.5 Z M 337.5,471.5 C 355.808,468.326 366.475,475.826 369.5,494C 369.101,505.893 363.101,512.393 351.5,513.5C 346.901,513.197 342.401,512.53 338,511.5C 337.5,498.171 337.333,484.837 337.5,471.5 Z"/></g>
<g><path style="opacity:0.971" fill="#000000" d="M 522.5,399.5 C 542.503,399.333 562.503,399.5 582.5,400C 594.318,401.494 604.485,406.327 613,414.5C 624.247,430.847 622.414,445.68 607.5,459C 604.833,460.333 602.167,461.667 599.5,463C 619.758,469.003 628.258,482.503 625,503.5C 619.391,518.576 608.558,527.409 592.5,530C 560.869,531.455 529.203,531.955 497.5,531.5C 496.833,529.181 496.666,526.847 497,524.5C 502.165,520.916 507.498,517.583 513,514.5C 513.5,481.168 513.667,447.835 513.5,414.5C 508.798,414.05 504.132,413.383 499.5,412.5C 499.5,408.5 499.5,404.5 499.5,400.5C 507.352,400.825 515.018,400.492 522.5,399.5 Z M 567.5,418.5 C 572.258,419.414 575.758,422.081 578,426.5C 584.156,447.863 575.99,457.863 553.5,456.5C 553.5,444.833 553.5,433.167 553.5,421.5C 558.375,420.915 563.042,419.915 567.5,418.5 Z M 553.5,471.5 C 571.808,468.326 582.475,475.826 585.5,494C 585.101,505.893 579.101,512.393 567.5,513.5C 562.901,513.197 558.401,512.53 554,511.5C 553.5,498.171 553.333,484.837 553.5,471.5 Z"/></g>
<g><path style="opacity:0.967" fill="#000000" d="M 420.5,400.5 C 444.23,399.849 467.73,400.516 491,402.5C 491.667,404.5 491.667,406.5 491,408.5C 486.418,411.876 481.585,414.876 476.5,417.5C 475.5,450.827 475.167,484.16 475.5,517.5C 480.875,518.285 486.208,519.285 491.5,520.5C 492.489,524.107 492.823,527.774 492.5,531.5C 468.167,531.5 443.833,531.5 419.5,531.5C 418.833,529.181 418.666,526.847 419,524.5C 424.165,520.916 429.498,517.583 435,514.5C 435.667,481.5 435.667,448.5 435,415.5C 430.538,414.449 426.038,413.449 421.5,412.5C 420.509,408.555 420.176,404.555 420.5,400.5 Z"/></g>
<g><path style="opacity:0.995" fill="#040404" d="M 702.5,539.5 C 709.505,540.496 714.505,544.163 717.5,550.5C 721.917,552.354 726.417,552.687 731,551.5C 739.149,552.322 744.149,556.655 746,564.5C 746.638,550.528 753.972,543.195 768,542.5C 772.979,543.08 777.812,544.246 782.5,546C 784.617,547.731 786.117,549.898 787,552.5C 792.242,551.051 797.409,551.385 802.5,553.5C 805.544,552.281 808.711,551.614 812,551.5C 815.853,552.593 819.686,552.593 823.5,551.5C 825.95,551.761 828.283,552.428 830.5,553.5C 835.966,550.921 841.299,551.254 846.5,554.5C 855.526,550.505 864.526,550.505 873.5,554.5C 873.219,547.873 876.219,543.706 882.5,542C 887.619,539.896 892.619,540.062 897.5,542.5C 908.377,538.102 915.71,541.602 919.5,553C 918.606,555.068 917.94,557.235 917.5,559.5C 918.229,564.47 918.729,569.47 919,574.5C 923.229,581.568 922.062,587.401 915.5,592C 907.649,592.284 899.816,592.784 892,593.5C 888.51,592.271 885.01,592.271 881.5,593.5C 878.547,593.349 875.714,592.683 873,591.5C 870.579,592.474 868.079,593.14 865.5,593.5C 839.497,592.18 813.497,592.18 787.5,593.5C 784.41,593.248 781.41,592.581 778.5,591.5C 767.745,595.108 757.745,593.775 748.5,587.5C 747.252,589.459 745.585,590.959 743.5,592C 724.486,592.217 705.486,592.717 686.5,593.5C 682.612,593.278 678.946,592.278 675.5,590.5C 668.001,594.096 660.335,594.429 652.5,591.5C 648.919,592.645 645.252,593.312 641.5,593.5C 624.845,592.741 608.178,592.241 591.5,592C 584.659,587.114 583.826,581.281 589,574.5C 589.667,570.5 589.667,566.5 589,562.5C 584.179,556.26 584.679,550.427 590.5,545C 594.431,544.004 598.431,543.504 602.5,543.5C 611.447,543.799 620.447,543.966 629.5,544C 633.801,544.651 636.801,546.985 638.5,551C 643.607,551.075 648.441,552.241 653,554.5C 660.665,550.88 668.498,550.547 676.5,553.5C 681.047,552.05 685.714,551.216 690.5,551C 693.103,545.56 697.103,541.727 702.5,539.5 Z M 746.5,565.5 C 748.793,567.853 748.959,570.52 747,573.5C 746.503,570.854 746.336,568.187 746.5,565.5 Z"/></g>
<g><path style="opacity:1" fill="#ebebeb" d="M 703.5,548.5 C 709.593,551.33 709.927,554.663 704.5,558.5C 702.5,557.167 700.833,555.5 699.5,553.5C 700.857,551.814 702.19,550.148 703.5,548.5 Z"/></g>
<g><path style="opacity:1" fill="#ebebeb" d="M 904.5,548.5 C 910.593,551.33 910.927,554.663 905.5,558.5C 903.5,557.167 901.833,555.5 900.5,553.5C 901.857,551.814 903.19,550.148 904.5,548.5 Z"/></g>
<g><path style="opacity:1" fill="#ececec" d="M 894.5,578.5 C 895.398,579.158 896.398,579.824 897.5,580.5C 897.137,581.183 896.804,581.85 896.5,582.5C 894.906,582.92 893.406,583.586 892,584.5C 890.333,583.5 888.667,582.5 887,581.5C 877.86,586.28 872.693,583.28 871.5,572.5C 872.955,564.044 877.955,560.044 886.5,560.5C 886.5,558.5 886.5,556.5 886.5,554.5C 885.5,554.5 884.5,554.5 883.5,554.5C 883.5,553.167 883.5,551.833 883.5,550.5C 885.488,550.173 887.488,549.84 889.5,549.5C 891.374,549.39 892.874,550.056 894,551.5C 894.5,560.494 894.666,569.494 894.5,578.5 Z"/></g>
<g><path style="opacity:1" fill="#707070" d="M 609.5,555.5 C 607.603,554.195 605.269,553.529 602.5,553.5C 600.167,553.833 597.833,554.167 595.5,554.5C 596.602,555.176 597.602,555.842 598.5,556.5C 597.167,556.5 595.833,556.5 594.5,556.5C 594.5,555.167 594.5,553.833 594.5,552.5C 599.833,552.5 605.167,552.5 610.5,552.5C 610.737,553.791 610.404,554.791 609.5,555.5 Z"/></g>
<g><path style="opacity:1" fill="#eeeeee" d="M 762.5,552.5 C 767.233,552.223 771.9,552.557 776.5,553.5C 777.484,556.428 777.817,559.428 777.5,562.5C 775.801,562.66 774.134,562.494 772.5,562C 771.606,557.432 768.939,555.765 764.5,557C 763.167,558.667 763.167,560.333 764.5,562C 770.56,563.934 775.394,567.434 779,572.5C 779.024,580.64 774.858,584.64 766.5,584.5C 762.933,584.589 759.6,583.755 756.5,582C 755.398,579.599 755.231,577.099 756,574.5C 757.153,572.503 758.653,572.17 760.5,573.5C 761.502,575.51 762.502,577.51 763.5,579.5C 769.02,581.922 771.186,580.256 770,574.5C 764.376,572.368 759.71,569.035 756,564.5C 755.287,558.926 757.453,554.926 762.5,552.5 Z"/></g>
<g><path style="opacity:1" fill="#f8f8f8" d="M 609.5,555.5 C 608.85,555.804 608.183,556.137 607.5,556.5C 606.516,559.428 606.183,562.428 606.5,565.5C 610.298,566.483 614.298,566.817 618.5,566.5C 618.813,562.958 618.479,559.625 617.5,556.5C 616.5,556.5 615.5,556.5 614.5,556.5C 614.5,555.5 614.5,554.5 614.5,553.5C 619.544,553.173 624.544,553.506 629.5,554.5C 628.672,555.415 627.672,556.081 626.5,556.5C 625.502,564.472 625.169,572.472 625.5,580.5C 627.167,580.5 628.833,580.5 630.5,580.5C 630.5,581.5 630.5,582.5 630.5,583.5C 625.125,583.828 619.792,583.495 614.5,582.5C 617.131,579.041 618.131,575.041 617.5,570.5C 613.833,570.5 610.167,570.5 606.5,570.5C 606.5,573.833 606.5,577.167 606.5,580.5C 607.833,580.5 609.167,580.5 610.5,580.5C 610.5,581.5 610.5,582.5 610.5,583.5C 605.125,583.828 599.792,583.495 594.5,582.5C 595.76,581.618 596.926,580.618 598,579.5C 598.5,571.841 598.666,564.174 598.5,556.5C 597.602,555.842 596.602,555.176 595.5,554.5C 597.833,554.167 600.167,553.833 602.5,553.5C 605.269,553.529 607.603,554.195 609.5,555.5 Z"/></g>
<g><path style="opacity:1" fill="#efefef" d="M 788.5,560.5 C 791.518,560.335 794.518,560.502 797.5,561C 798.333,561.833 799.167,562.667 800,563.5C 800.333,568.5 800.667,573.5 801,578.5C 802.205,579.071 803.372,579.738 804.5,580.5C 801.072,584.997 797.405,585.331 793.5,581.5C 788.912,585.812 784.745,585.479 781,580.5C 780.313,578.08 780.813,575.913 782.5,574C 786.026,572.663 789.692,572.163 793.5,572.5C 794.661,567.825 792.994,565.159 788.5,564.5C 789.161,569.168 787.161,571.168 782.5,570.5C 782.187,567.753 782.52,565.086 783.5,562.5C 785.336,561.972 787.003,561.306 788.5,560.5 Z"/></g>
<g><path style="opacity:1" fill="#efefef" d="M 855.5,560.5 C 858.518,560.335 861.518,560.502 864.5,561C 865.333,561.833 866.167,562.667 867,563.5C 867.333,568.5 867.667,573.5 868,578.5C 869.205,579.071 870.372,579.738 871.5,580.5C 868.072,584.997 864.405,585.331 860.5,581.5C 855.912,585.812 851.745,585.479 848,580.5C 847.313,578.08 847.813,575.913 849.5,574C 853.026,572.663 856.692,572.163 860.5,572.5C 861.661,567.825 859.994,565.159 855.5,564.5C 856.161,569.168 854.161,571.168 849.5,570.5C 849.187,567.753 849.52,565.086 850.5,562.5C 852.336,561.972 854.003,561.306 855.5,560.5 Z"/></g>
<g><path style="opacity:1" fill="#eeeeee" d="M 637.5,560.5 C 649.306,560.143 654.14,565.81 652,577.5C 648.23,584.414 642.73,586.247 635.5,583C 627.152,574.609 627.819,567.109 637.5,560.5 Z"/></g>
<g><path style="opacity:1" fill="#ebebeb" d="M 660.5,560.5 C 664.548,560.395 668.548,560.728 672.5,561.5C 672.682,563.591 672.348,565.591 671.5,567.5C 668.167,569.252 666.501,568.252 666.5,564.5C 665.167,564.5 663.833,564.5 662.5,564.5C 662.297,566.39 662.963,567.89 664.5,569C 674.316,572.207 675.649,577.207 668.5,584C 663.804,584.914 659.304,584.414 655,582.5C 654.442,579.946 655.275,577.946 657.5,576.5C 659.67,578.086 662.004,579.42 664.5,580.5C 664.833,580 665.167,579.5 665.5,579C 661.924,575.955 658.424,572.788 655,569.5C 654.333,568.167 654.333,566.833 655,565.5C 656.73,563.598 658.563,561.931 660.5,560.5 Z"/></g>
<g><path style="opacity:1" fill="#efefef" d="M 682.5,560.5 C 689.643,559.066 694.31,561.733 696.5,568.5C 696.471,570.029 695.804,571.196 694.5,572C 690.514,572.499 686.514,572.666 682.5,572.5C 682.472,574.582 683.139,576.416 684.5,578C 687.894,578.752 691.227,578.585 694.5,577.5C 695.731,578.651 695.731,579.817 694.5,581C 687.576,586.097 681.41,585.264 676,578.5C 673.368,570.765 675.535,564.765 682.5,560.5 Z"/></g>
<g><path style="opacity:1" fill="#efefef" d="M 700.5,560.5 C 703.365,560.055 705.865,560.722 708,562.5C 708.333,568.167 708.667,573.833 709,579.5C 710.706,580.308 711.539,581.641 711.5,583.5C 706.786,583.827 702.12,583.493 697.5,582.5C 697.833,581.5 698.5,580.833 699.5,580.5C 700.494,575.544 700.827,570.544 700.5,565.5C 698.654,565.778 697.32,565.111 696.5,563.5C 697.624,562.141 698.958,561.141 700.5,560.5 Z"/></g>
<g><path style="opacity:1" fill="#efefef" d="M 715.5,560.5 C 719.08,559.923 722.08,560.923 724.5,563.5C 729.045,559.183 733.212,559.516 737,564.5C 737.333,569.5 737.667,574.5 738,579.5C 739.706,580.308 740.539,581.641 740.5,583.5C 736.833,583.5 733.167,583.5 729.5,583.5C 729.666,578.156 729.499,572.823 729,567.5C 727.301,566.594 725.467,566.261 723.5,566.5C 723.145,572.341 723.812,578.008 725.5,583.5C 721.116,583.826 716.783,583.492 712.5,582.5C 712.833,581.5 713.5,580.833 714.5,580.5C 715.494,575.544 715.827,570.544 715.5,565.5C 713.654,565.778 712.32,565.111 711.5,563.5C 712.624,562.141 713.958,561.141 715.5,560.5 Z"/></g>
<g><path style="opacity:1" fill="#f2f2f2" d="M 830.5,566.5 C 829.837,568.641 829.503,570.975 829.5,573.5C 829.529,576.269 830.195,578.603 831.5,580.5C 832.404,581.209 832.737,582.209 832.5,583.5C 829.167,583.5 825.833,583.5 822.5,583.5C 822.666,578.156 822.499,572.823 822,567.5C 820.301,566.594 818.467,566.261 816.5,566.5C 816.145,572.341 816.812,578.008 818.5,583.5C 814.116,583.826 809.783,583.492 805.5,582.5C 805.833,581.5 806.5,580.833 807.5,580.5C 808.494,575.544 808.827,570.544 808.5,565.5C 805.834,565.934 804.667,564.934 805,562.5C 809.5,559.504 813.667,559.838 817.5,563.5C 821.999,559.33 826.166,559.664 830,564.5C 834.472,559.315 838.805,559.315 843,564.5C 843.333,569.5 843.667,574.5 844,579.5C 845.706,580.308 846.539,581.641 846.5,583.5C 842.833,583.5 839.167,583.5 835.5,583.5C 835.666,578.156 835.499,572.823 835,567.5C 833.644,566.62 832.144,566.286 830.5,566.5 Z"/></g>
<g><path style="opacity:1" fill="#efefef" d="M 898.5,583.5 C 898.5,582.833 898.5,582.167 898.5,581.5C 899.15,581.196 899.817,580.863 900.5,580.5C 901.494,575.544 901.827,570.544 901.5,565.5C 898.306,565.824 897.306,564.658 898.5,562C 902.22,559.942 905.72,560.109 909,562.5C 909.333,568.167 909.667,573.833 910,579.5C 911.706,580.308 912.539,581.641 912.5,583.5C 907.833,583.5 903.167,583.5 898.5,583.5 Z"/></g>
<g><path style="opacity:1" fill="#121212" d="M 689.5,568.5 C 687.265,568.795 685.265,568.461 683.5,567.5C 683.415,566.005 684.081,565.005 685.5,564.5C 687.522,565.189 688.856,566.522 689.5,568.5 Z"/></g>
<g><path style="opacity:1" fill="#7b7b7b" d="M 617.5,556.5 C 618.479,559.625 618.813,562.958 618.5,566.5C 614.298,566.817 610.298,566.483 606.5,565.5C 610.167,565.5 613.833,565.5 617.5,565.5C 617.5,562.5 617.5,559.5 617.5,556.5 Z"/></g>
<g><path style="opacity:1" fill="#070707" d="M 638.5,565.5 C 640.766,565.141 642.599,565.808 644,567.5C 644.667,571.167 644.667,574.833 644,578.5C 642.451,581.003 640.784,581.003 639,578.5C 638.764,576.236 638.264,574.069 637.5,572C 638.423,569.959 638.756,567.792 638.5,565.5 Z"/></g>
<g><path style="opacity:1" fill="#020202" d="M 881.5,565.5 C 883.167,565.5 884.833,565.5 886.5,565.5C 886.5,569.833 886.5,574.167 886.5,578.5C 884.278,578.822 882.444,578.155 881,576.5C 880.322,572.779 880.489,569.112 881.5,565.5 Z"/></g>
<g><path style="opacity:1" fill="#6e6e6e" d="M 830.5,566.5 C 830.226,571.263 830.559,575.93 831.5,580.5C 830.195,578.603 829.529,576.269 829.5,573.5C 829.503,570.975 829.837,568.641 830.5,566.5 Z"/></g>
<g><path style="opacity:1" fill="#727272" d="M 683.5,567.5 C 685.265,568.461 687.265,568.795 689.5,568.5C 687.307,569.797 684.973,569.797 682.5,568.5C 682.624,567.893 682.957,567.56 683.5,567.5 Z"/></g>
<g><path style="opacity:1" fill="#101010" d="M 791.5,575.5 C 793.225,575.843 793.725,576.843 793,578.5C 791.644,579.38 790.144,579.714 788.5,579.5C 788.5,578.5 788.5,577.5 788.5,576.5C 789.791,576.737 790.791,576.404 791.5,575.5 Z"/></g>
<g><path style="opacity:1" fill="#101010" d="M 858.5,575.5 C 860.225,575.843 860.725,576.843 860,578.5C 858.644,579.38 857.144,579.714 855.5,579.5C 855.5,578.5 855.5,577.5 855.5,576.5C 856.791,576.737 857.791,576.404 858.5,575.5 Z"/></g>
<g><path style="opacity:1" fill="#717171" d="M 894.5,578.5 C 895.833,578.5 897.167,578.5 898.5,578.5C 898.5,579.5 898.5,580.5 898.5,581.5C 898.5,582.167 898.5,582.833 898.5,583.5C 897.833,583.167 897.167,582.833 896.5,582.5C 896.804,581.85 897.137,581.183 897.5,580.5C 896.398,579.824 895.398,579.158 894.5,578.5 Z"/></g>
</svg>
